<svg xmlns="http://www.w3.org/2000/svg" xmlns:xlink="http://www.w3.org/1999/xlink" version="1.1" width="256" height="256" viewBox="0 0 256 256" xml:space="preserve">

<defs>
</defs>
<g style="stroke: none; stroke-width: 0; stroke-dasharray: none; stroke-linecap: butt; stroke-linejoin: miter; stroke-miterlimit: 10; fill: none; fill-rule: nonzero; opacity: 1;" transform="translate(1.4065934065934016 1.4065934065934016) scale(2.81 2.81)" >
	<path d="M 36.231 55.648 H 6.354 C 2.851 55.648 0 52.798 0 49.294 V 6.354 C 0 2.851 2.851 0 6.354 0 h 29.876 c 3.504 0 6.354 2.851 6.354 6.354 v 42.939 C 42.585 52.798 39.735 55.648 36.231 55.648 z M 6.354 6 C 6.159 6 6 6.159 6 6.354 v 42.939 c 0 0.195 0.159 0.354 0.354 0.354 h 29.876 c 0.195 0 0.354 -0.159 0.354 -0.354 V 6.354 C 36.585 6.159 36.426 6 36.231 6 H 6.354 z" style="stroke: none; stroke-width: 1; stroke-dasharray: none; stroke-linecap: butt; stroke-linejoin: miter; stroke-miterlimit: 10; fill: rgb(0,0,0); fill-rule: nonzero; opacity: 1;" transform=" matrix(1 0 0 1 0 0) " stroke-linecap="round" />
	<path d="M 36.231 90 H 6.354 C 2.851 90 0 87.149 0 83.646 V 68.616 c 0 -3.504 2.851 -6.354 6.354 -6.354 h 29.876 c 3.504 0 6.354 2.851 6.354 6.354 v 15.029 C 42.585 87.149 39.735 90 36.231 90 z M 6.354 68.262 C 6.159 68.262 6 68.421 6 68.616 v 15.029 C 6 83.841 6.159 84 6.354 84 h 29.876 c 0.195 0 0.354 -0.159 0.354 -0.354 V 68.616 c 0 -0.195 -0.159 -0.354 -0.354 -0.354 H 6.354 z" style="stroke: none; stroke-width: 1; stroke-dasharray: none; stroke-linecap: butt; stroke-linejoin: miter; stroke-miterlimit: 10; fill: rgb(0,0,0); fill-rule: nonzero; opacity: 1;" transform=" matrix(1 0 0 1 0 0) " stroke-linecap="round" />
	<path d="M 83.646 90 H 53.769 c -3.504 0 -6.354 -2.851 -6.354 -6.354 V 40.706 c 0 -3.504 2.851 -6.354 6.354 -6.354 h 29.877 c 3.504 0 6.354 2.851 6.354 6.354 v 42.939 C 90 87.149 87.149 90 83.646 90 z M 53.769 40.352 c -0.195 0 -0.354 0.159 -0.354 0.354 v 42.939 c 0 0.195 0.159 0.354 0.354 0.354 h 29.877 C 83.841 84 84 83.841 84 83.646 V 40.706 c 0 -0.195 -0.159 -0.354 -0.354 -0.354 H 53.769 z" style="stroke: none; stroke-width: 1; stroke-dasharray: none; stroke-linecap: butt; stroke-linejoin: miter; stroke-miterlimit: 10; fill: rgb(0,0,0); fill-rule: nonzero; opacity: 1;" transform=" matrix(1 0 0 1 0 0) " stroke-linecap="round" />
	<path d="M 83.646 27.738 H 53.769 c -3.504 0 -6.354 -2.851 -6.354 -6.355 V 6.354 C 47.414 2.851 50.265 0 53.769 0 h 29.877 C 87.149 0 90 2.851 90 6.354 v 15.029 C 90 24.887 87.149 27.738 83.646 27.738 z M 53.769 6 c -0.195 0 -0.354 0.159 -0.354 0.354 v 15.029 c 0 0.196 0.159 0.355 0.354 0.355 h 29.877 c 0.195 0 0.354 -0.159 0.354 -0.355 V 6.354 C 84 6.159 83.841 6 83.646 6 H 53.769 z" style="stroke: none; stroke-width: 1; stroke-dasharray: none; stroke-linecap: butt; stroke-linejoin: miter; stroke-miterlimit: 10; fill: rgb(0,0,0); fill-rule: nonzero; opacity: 1;" transform=" matrix(1 0 0 1 0 0) " stroke-linecap="round" />
</g>
</svg>