<?xml version="1.0" encoding="UTF-8"?>
<svg version="1.1" viewBox="0 0 1200 1200" width="1280" height="1280" xmlns="http://www.w3.org/2000/svg">
<path transform="translate(863,512)" d="m0 0 62 1 14 3 10 6 8 8 4 8 1 4v10l-3 10-6 9-9 8-16 8 6 7 4 5 2 6v16l-1 21 4-8 4-9h10v3l5 2-3 11-6 11-7 6-5 2h-13l-7-4-9-9-2-5v-43l-1-2-7-2-16-1-4 18-7 27v5l7 1v4l5 1-1 8-1 1h-54v-4l-5-1-2-9-1-3-4 16-1 1h-18l1 5h-4l-1-5h-82l-1-4-4-1 2-9 14-3 5-12 24-91 3-11-8-1v-4h-5l1-8 1-2h99v4l5 1-2 9-5 15-4 16h-10l-1-4-4-1 1-11v-12l-1-1-8-1h-17l-10 2-4 9-10 38 3 1 9-3 6-8 6-14h10v5h5l-2 9-8 30-5 21h-10v-4h-5l1-20-15-1-4 17-9 34h22l12-2 8-4 5-6 11-22h9l1 2-1 3h5l-1 6-3 12 4 11 11-1 3-2 5-15 22-84 4-14-9-1 1-4h-5l1-10zm51 15-8 2-4 6-8 28-3 11v4h8l13-3 9-6 6-7 4-10 1-4v-12l-2-5-5-3z" fill="#040202"/>
<path transform="translate(208,512)" d="m0 0h38l1 5h4l2 14 6 66 2 15 11-17 14-22 12-19 15-24 11-17h38l1 2-1 2 5 1-1 8-5 2-11 2-3 9-18 69-8 30-1 6 8 1v3l4 1v7l-1 3h-54l-1-4-4-1 1-9 15-2 2-5 10-36 8-30v-2l-16 25-14 22-13 20-14 22h-9l-2-4-3-1-4-36-6-56-19 72-2 10 10 1v4l5 1-2 8-1 1h-42l-1-4-4-1 1-7 1-2 13-3 5-10 17-64 10-38 1-2-9-1v-3l-4-1 1-10z" fill="#040303"/>
<path transform="translate(491,512)" d="m0 0 62 1 14 3 11 7 8 9 3 6 1 5v8l-4 13-7 9-10 8-13 6 6 7 5 7 1 5v13l-1 12v11l4-8 4-9h10l-1 4 5 1-1 7-5 12-7 8-7 3h-13l-6-3-7-6-5-8v-43l-1-3-7-2-16-1-4 17-7 28-1 6h8v4l5 1-2 9h-54v-4h-5l1-9 6-2 9-2 4-10 11-41 15-57 2-6-9-1v-3l-4-1 1-10zm51 15-8 2-4 5-10 36-2 8h9l12-3 8-4 8-9 4-10 1-7v-8l-3-7-4-2z" fill="#FDA9A9"/>
<path transform="translate(374,513)" d="m0 0h99v4l5 1-3 11-6 20-2 9h-10l-1-4-4-1 1-12v-11l-1-1-8-1h-17l-10 2-4 8-10 38v2l10-2 5-4 6-12 3-7h10v5h5l-3 12-7 26-5 22-10 1v-5h-5l1-20-15-1-4 17-9 34h22l12-2 8-4 7-9 7-17 2-2h9v5h5l-2 9-6 24-2 10-1 1h-104l-1-4-4-1 2-9 14-3 4-9 22-83 6-22-8-1v-4h-5l1-9z" fill="#030202"/>
<path transform="translate(673,512)" d="m0 0h22l11 4 8 5 3-1 4-7h10l-1 4 5 1-2 9-7 23-4 15-1 1h-9v-5h-5l1-17-2-9-4-5-11-3-11 1-10 4-11 9-10 12-8 14-7 16-4 15-2 21 2 14 4 8 9 4 12-1 10-3 11-7 8-9 12-24h10v3l5 2-11 47-2 6h-9l-1-4-4-1v-4l-16 8-8 2h-20l-12-3-9-5-11-10-4-5-5-13-1-4v-23l3-14 6-16 9-16 8-10 6-7 13-10 9-5 9-4z" fill="#050303"/>
<path transform="translate(865,516)" d="m0 0h61l12 3 9 5 6 9 1 2v15l-6 12-9 9-10 6-13 5-7 2 14 4 7 6 2 5v21l-1 18 2 7 2 2 5-1 5-8 4-10h4l-1 6-5 10-4 5-10 4-10-1-5-3-4-5-1-3v-43l-4-6-8-4-17-2h-4l-7 26-6 24v7l3 3 9 2-1 3-47 1-1-4 13-3 5-8 21-79 7-27v-7l-4-3-7-1zm49 11-8 2-4 6-8 28-3 11v4h8l13-3 9-6 6-7 4-10 1-4v-12l-2-5-5-3z" fill="#FDA9A9"/>
<path transform="translate(242,515)" d="m0 0 2 1 5 52 5 53 1 6 13-20 48-76 9-14 1-1h33l-1 4-12 2-4 5-5 16-13 50-11 42v11l11 2v3h-49l1-3 12-3 4-4 7-24 22-82v-3l-12 19-14 22-13 20-14 22-16 25-7 11h-5l-2-14-11-105-2 3-20 77-6 24 1 8 3 2 9 2v3h-37v-3l12-3 5-6 10-36 18-68 1-10-1-3-10-2v-4z" fill="#FDA9A9"/>
<path transform="translate(376,516)" d="m0 0h93l-2 9-6 20-1 5h-5l1-7v-14l-3-5-6-3h-32l-6 2-2 5-13 48-1 6 15-1 8-3 6-7 4-8 3-7h4l-2 10-7 27-4 17-4 1-1-2 1-14-3-6-3-2-5-1h-13l-3 9-11 42v7l2 2 5 1h24l11-2 8-4 7-8 9-19h4l-2 9-5 21-2 7h-98v-3l13-3 4-6 9-32 19-72 1-4v-8l-4-2-7-1z" fill="#FDA9A9"/>
<path transform="translate(491,512)" d="m0 0 62 1 14 3 11 7 8 9 3 6 1 5v8l-4 13-7 9-10 8-13 6 6 7 5 7 1 5v13l-1 12v11l4-8 4-9h10l-1 4 5 1-1 7-5 12-7 8-7 3h-13l-6-3-7-6-5-8v-43l-1-3-7-2-16-1-4 17-7 28-1 6h8v4l5 1-2 9h-54v-4h-5l1-9 6-2 9-2 4-10 11-41 15-57 2-6-9-1v-3l-4-1 1-10zm2 4-1 4 10 2 2 3-1 10-19 72-8 30-5 8-13 3v4l48-1 1-3-10-2-2-2v-9l12-47 1-2 16 1 10 3 5 4 2 5v43l4 6 3 3 7 2 10-1 7-4 6-10 3-10-5 1-5 12-3 5-5 1-3-3-1-5 1-22v-17l-4-8-8-5-11-3 15-5 12-6 12-11 5-9 1-4v-13l-5-10-9-6-8-3-6-1z" fill="#050303"/>
<path transform="translate(748,516)" d="m0 0h94l-8 26-2 8h-4v-21l-2-6-7-2h-32l-5 3-4 8-12 45-1 5 15-1 8-3 7-8 6-14h4l-1 7-8 30-4 18h-4v-17l-2-6-9-2h-13l-6 21-8 31 1 7 6 2h25l9-1 2 5h-80v-3l13-3 5-8 15-56 13-49v-9l-3-2-8-1z" fill="#FDA9A9"/>
<path transform="translate(674,515)" d="m0 0h20l10 3 9 6 5-1 5-7 4 1-6 18-6 23h-4v-13l-2-11-6-8-8-5-12-2-11 2-10 5-10 8-11 14-8 14-6 14-5 18-1 6v23l4 13 7 8 6 3 5 1h9l11-3 12-6 6-5 9-13 8-17h4l-1 7-10 41-4-1v-9l-1-3-6 2-10 6-9 4-10 2h-11l-14-3-10-5-5-4-6-9-4-13v-22l4-17 6-15 8-13 8-10 10-10 10-7 14-7z" fill="#FDA9A9"/>
<path transform="translate(904,520)" d="m0 0h15l8 3 5 5 3 7v14l-3 10-6 10-11 8-14 4-8 1h-12l1-8 11-40 4-9 4-4zm10 7-8 2-4 6-8 28-3 11v4h8l13-3 9-6 6-7 4-10 1-4v-12l-2-5-5-3z" fill="#040303"/>
<path transform="translate(532,520)" d="m0 0h15l10 4 4 5 2 6v13l-4 13-4 6-7 7-8 4-11 3-8 1h-12l1-8 12-44 5-8zm10 7-8 2-4 5-10 36-2 8h9l12-3 8-4 8-9 4-10 1-7v-8l-3-7-4-2z" fill="#040303"/>
<path transform="translate(966,671)" d="m0 0 9 1 8 6 6 8 1 9-3 5-5 4h-7l-8-4-7-8-3-7 1-7 5-6zm0 4-4 3-1 5 4 8 7 7 4 2 7-1 3-4-1-7-9-10-5-3z" fill="#060404"/>
<path transform="translate(989,640)" d="m0 0 9 1 10 5 6 7v8l-4 6-4 2h-9l-10-4-6-5-2-4v-8l3-5zm-3 5-3 3v7l5 5 8 4 8 1 5-3 1-1v-7l-7-6-7-3z" fill="#020101"/>
<path transform="translate(997,603)" d="m0 0h15l8 4 3 6-1 8-5 5-4 2-10 1-9-2-6-4-2-5 1-8 5-5zm3 4-8 3-2 3 1 7 4 3 4 1h11l7-3 2-3-1-7-4-3-4-1z" fill="#070505"/>
<path transform="translate(934,691)" d="m0 0h8l5 5 1 2v7l-7 18 12-5h3l1 4-21 8-2-1 1-5 7-16 1-7-3-5h-6l-3 4-2 5h-3v-6l4-6z" fill="#070505"/>
<path transform="translate(833,666)" d="m0 0h7l6 5 2 4v5h-4l-3-7-2-2h-5l-1 1v7l3 10-3 6-6 3-6-1-7-6-2-5 1-5h3l3 8 3 3h6l2-2-1-6-2-5v-8l4-4z" fill="#070404"/>
<path transform="translate(856,683)" d="m0 0 6 2 19 9 1 2-1 2-5-1-7-3-3 9-10 19-4-1 1-5 11-22 1-3-6-2-4-2z" fill="#090606"/>
<path transform="translate(816,614)" d="m0 0h4l-2 10-4 13-9 3-3-1 5-6 7-14z" fill="#FDA9A9"/>
<path transform="translate(805,644)" d="m0 0h3l2 7h-13l-1-3z" fill="#FDA9A9"/>
<path transform="translate(883,726)" d="m0 0 5 1-1 4-3 1-2-1z"/>
</svg>
