<svg xmlns="http://www.w3.org/2000/svg" xmlns:xlink="http://www.w3.org/1999/xlink" version="1.1" width="1000" height="1000" viewBox="0 0 1000 1000" xml:space="preserve">
<desc>Created with Fabric.js 3.5.0</desc>
<defs>
</defs>
<rect x="0" y="0" width="100%" height="100%" fill="#ffffff"/>
<g transform="matrix(0.8732 0 0 0.8732 500.0085 500.0085)" id="419020">
<g style="" vector-effect="non-scaling-stroke">
		<g transform="matrix(1.0667 0 0 1.0667 251.2042 -12.7975)">
<path style="stroke: none; stroke-width: 1; stroke-dasharray: none; stroke-linecap: butt; stroke-dashoffset: 0; stroke-linejoin: miter; stroke-miterlimit: 4; is-custom-font: none; font-file-url: none; fill: rgb(4,2,2); fill-rule: nonzero; opacity: 1;" transform=" translate(27.5, -76)" d="m 0 0 l 62 1 l 14 3 l 10 6 l 8 8 l 4 8 l 1 4 v 10 l -3 10 l -6 9 l -9 8 l -16 8 l 6 7 l 4 5 l 2 6 v 16 l -1 21 l 4 -8 l 4 -9 h 10 v 3 l 5 2 l -3 11 l -6 11 l -7 6 l -5 2 h -13 l -7 -4 l -9 -9 l -2 -5 v -43 l -1 -2 l -7 -2 l -16 -1 l -4 18 l -7 27 v 5 l 7 1 v 4 l 5 1 l -1 8 l -1 1 h -54 v -4 l -5 -1 l -2 -9 l -1 -3 l -4 16 l -1 1 h -18 l 1 5 h -4 l -1 -5 h -82 l -1 -4 l -4 -1 l 2 -9 l 14 -3 l 5 -12 l 24 -91 l 3 -11 l -8 -1 v -4 h -5 l 1 -8 l 1 -2 h 99 v 4 l 5 1 l -2 9 l -5 15 l -4 16 h -10 l -1 -4 l -4 -1 l 1 -11 v -12 l -1 -1 l -8 -1 h -17 l -10 2 l -4 9 l -10 38 l 3 1 l 9 -3 l 6 -8 l 6 -14 h 10 v 5 h 5 l -2 9 l -8 30 l -5 21 h -10 v -4 h -5 l 1 -20 l -15 -1 l -4 17 l -9 34 h 22 l 12 -2 l 8 -4 l 5 -6 l 11 -22 h 9 l 1 2 l -1 3 h 5 l -1 6 l -3 12 l 4 11 l 11 -1 l 3 -2 l 5 -15 l 22 -84 l 4 -14 l -9 -1 l 1 -4 h -5 l 1 -10 z m 51 15 l -8 2 l -4 6 l -8 28 l -3 11 v 4 h 8 l 13 -3 l 9 -6 l 6 -7 l 4 -10 l 1 -4 v -12 l -2 -5 l -5 -3 z" stroke-linecap="round"/>
</g>
		<g transform="matrix(1.0667 0 0 1.0667 -353.0634 -15.4642)">
<path style="stroke: none; stroke-width: 1; stroke-dasharray: none; stroke-linecap: butt; stroke-dashoffset: 0; stroke-linejoin: miter; stroke-miterlimit: 4; is-custom-font: none; font-file-url: none; fill: rgb(4,3,3); fill-rule: nonzero; opacity: 1;" transform=" translate(-61, -73.5)" d="m 0 0 h 38 l 1 5 h 4 l 2 14 l 6 66 l 2 15 l 11 -17 l 14 -22 l 12 -19 l 15 -24 l 11 -17 h 38 l 1 2 l -1 2 l 5 1 l -1 8 l -5 2 l -11 2 l -3 9 l -18 69 l -8 30 l -1 6 l 8 1 v 3 l 4 1 v 7 l -1 3 h -54 l -1 -4 l -4 -1 l 1 -9 l 15 -2 l 2 -5 l 10 -36 l 8 -30 v -2 l -16 25 l -14 22 l -13 20 l -14 22 h -9 l -2 -4 l -3 -1 l -4 -36 l -6 -56 l -19 72 l -2 10 l 10 1 v 4 l 5 1 l -2 8 l -1 1 h -42 l -1 -4 l -4 -1 l 1 -7 l 1 -2 l 13 -3 l 5 -10 l 17 -64 l 10 -38 l 1 -2 l -9 -1 v -3 l -4 -1 l 1 -10 z" stroke-linecap="round"/>
</g>
		<g transform="matrix(1.0667 0 0 1.0667 -83.1977 -14.9309)">
<path style="stroke: none; stroke-width: 1; stroke-dasharray: none; stroke-linecap: butt; stroke-dashoffset: 0; stroke-linejoin: miter; stroke-miterlimit: 4; is-custom-font: none; font-file-url: none; fill: rgb(253,169,169); fill-rule: nonzero; opacity: 1;" transform=" translate(-31, -74)" d="m 0 0 l 62 1 l 14 3 l 11 7 l 8 9 l 3 6 l 1 5 v 8 l -4 13 l -7 9 l -10 8 l -13 6 l 6 7 l 5 7 l 1 5 v 13 l -1 12 v 11 l 4 -8 l 4 -9 h 10 l -1 4 l 5 1 l -1 7 l -5 12 l -7 8 l -7 3 h -13 l -6 -3 l -7 -6 l -5 -8 v -43 l -1 -3 l -7 -2 l -16 -1 l -4 17 l -7 28 l -1 6 h 8 v 4 l 5 1 l -2 9 h -54 v -4 h -5 l 1 -9 l 6 -2 l 9 -2 l 4 -10 l 11 -41 l 15 -57 l 2 -6 l -9 -1 v -3 l -4 -1 l 1 -10 z m 51 15 l -8 2 l -4 5 l -10 36 l -2 8 h 9 l 12 -3 l 8 -4 l 8 -9 l 4 -10 l 1 -7 v -8 l -3 -7 l -4 -2 z" stroke-linecap="round"/>
</g>
		<g transform="matrix(1.0667 0 0 1.0667 -205.331 -14.9308)">
<path style="stroke: none; stroke-width: 1; stroke-dasharray: none; stroke-linecap: butt; stroke-dashoffset: 0; stroke-linejoin: miter; stroke-miterlimit: 4; is-custom-font: none; font-file-url: none; fill: rgb(3,2,2); fill-rule: nonzero; opacity: 1;" transform=" translate(-33.5, -73)" d="m 0 0 h 99 v 4 l 5 1 l -3 11 l -6 20 l -2 9 h -10 l -1 -4 l -4 -1 l 1 -12 v -11 l -1 -1 l -8 -1 h -17 l -10 2 l -4 8 l -10 38 v 2 l 10 -2 l 5 -4 l 6 -12 l 3 -7 h 10 v 5 h 5 l -3 12 l -7 26 l -5 22 l -10 1 v -5 h -5 l 1 -20 l -15 -1 l -4 17 l -9 34 h 22 l 12 -2 l 8 -4 l 7 -9 l 7 -17 l 2 -2 h 9 v 5 h 5 l -2 9 l -6 24 l -2 10 l -1 1 h -104 l -1 -4 l -4 -1 l 2 -9 l 14 -3 l 4 -9 l 22 -83 l 6 -22 l -8 -1 v -4 h -5 l 1 -9 z" stroke-linecap="round"/>
</g>
		<g transform="matrix(1.0667 0 0 1.0667 70.9356 -14.9309)">
<path style="stroke: none; stroke-width: 1; stroke-dasharray: none; stroke-linecap: butt; stroke-dashoffset: 0; stroke-linejoin: miter; stroke-miterlimit: 4; is-custom-font: none; font-file-url: none; fill: rgb(5,3,3); fill-rule: nonzero; opacity: 1;" transform=" translate(6.5, -74)" d="m 0 0 h 22 l 11 4 l 8 5 l 3 -1 l 4 -7 h 10 l -1 4 l 5 1 l -2 9 l -7 23 l -4 15 l -1 1 h -9 v -5 h -5 l 1 -17 l -2 -9 l -4 -5 l -11 -3 l -11 1 l -10 4 l -11 9 l -10 12 l -8 14 l -7 16 l -4 15 l -2 21 l 2 14 l 4 8 l 9 4 l 12 -1 l 10 -3 l 11 -7 l 8 -9 l 12 -24 h 10 v 3 l 5 2 l -11 47 l -2 6 h -9 l -1 -4 l -4 -1 v -4 l -16 8 l -8 2 h -20 l -12 -3 l -9 -5 l -11 -10 l -4 -5 l -5 -13 l -1 -4 v -23 l 3 -14 l 6 -16 l 9 -16 l 8 -10 l 6 -7 l 13 -10 l 9 -5 l 9 -4 z" stroke-linecap="round"/>
</g>
		<g transform="matrix(1.0667 0 0 1.0667 311.4688 -16.531)">
<path style="stroke: none; stroke-width: 1; stroke-dasharray: none; stroke-linecap: butt; stroke-dashoffset: 0; stroke-linejoin: miter; stroke-miterlimit: 4; is-custom-font: none; font-file-url: none; fill: rgb(253,169,169); fill-rule: nonzero; opacity: 1;" transform=" translate(-27, -68.5)" d="m 0 0 h 61 l 12 3 l 9 5 l 6 9 l 1 2 v 15 l -6 12 l -9 9 l -10 6 l -13 5 l -7 2 l 14 4 l 7 6 l 2 5 v 21 l -1 18 l 2 7 l 2 2 l 5 -1 l 5 -8 l 4 -10 h 4 l -1 6 l -5 10 l -4 5 l -10 4 l -10 -1 l -5 -3 l -4 -5 l -1 -3 v -43 l -4 -6 l -8 -4 l -17 -2 h -4 l -7 26 l -6 24 v 7 l 3 3 l 9 2 l -1 3 l -47 1 l -1 -4 l 13 -3 l 5 -8 l 21 -79 l 7 -27 v -7 l -4 -3 l -7 -1 z m 49 11 l -8 2 l -4 6 l -8 28 l -3 11 v 4 h 8 l 13 -3 l 9 -6 l 6 -7 l 4 -10 l 1 -4 v -12 l -2 -5 l -5 -3 z" stroke-linecap="round"/>
</g>
		<g transform="matrix(1.0667 0 0 1.0667 -355.197 -18.1311)">
<path style="stroke: none; stroke-width: 1; stroke-dasharray: none; stroke-linecap: butt; stroke-dashoffset: 0; stroke-linejoin: miter; stroke-miterlimit: 4; is-custom-font: none; font-file-url: none; fill: rgb(253,169,169); fill-rule: nonzero; opacity: 1;" transform=" translate(-25, -68)" d="m 0 0 l 2 1 l 5 52 l 5 53 l 1 6 l 13 -20 l 48 -76 l 9 -14 l 1 -1 h 33 l -1 4 l -12 2 l -4 5 l -5 16 l -13 50 l -11 42 v 11 l 11 2 v 3 h -49 l 1 -3 l 12 -3 l 4 -4 l 7 -24 l 22 -82 v -3 l -12 19 l -14 22 l -13 20 l -14 22 l -16 25 l -7 11 h -5 l -2 -14 l -11 -105 l -2 3 l -20 77 l -6 24 l 1 8 l 3 2 l 9 2 v 3 h -37 v -3 l 12 -3 l 5 -6 l 10 -36 l 18 -68 l 1 -10 l -1 -3 l -10 -2 v -4 z" stroke-linecap="round"/>
</g>
		<g transform="matrix(1.0667 0 0 1.0667 -207.9979 -17.5977)">
<path style="stroke: none; stroke-width: 1; stroke-dasharray: none; stroke-linecap: butt; stroke-dashoffset: 0; stroke-linejoin: miter; stroke-miterlimit: 4; is-custom-font: none; font-file-url: none; fill: rgb(253,169,169); fill-rule: nonzero; opacity: 1;" transform=" translate(-29, -67.5)" d="m 0 0 h 93 l -2 9 l -6 20 l -1 5 h -5 l 1 -7 v -14 l -3 -5 l -6 -3 h -32 l -6 2 l -2 5 l -13 48 l -1 6 l 15 -1 l 8 -3 l 6 -7 l 4 -8 l 3 -7 h 4 l -2 10 l -7 27 l -4 17 l -4 1 l -1 -2 l 1 -14 l -3 -6 l -3 -2 l -5 -1 h -13 l -3 9 l -11 42 v 7 l 2 2 l 5 1 h 24 l 11 -2 l 8 -4 l 7 -8 l 9 -19 h 4 l -2 9 l -5 21 l -2 7 h -98 v -3 l 13 -3 l 4 -6 l 9 -32 l 19 -72 l 1 -4 v -8 l -4 -2 l -7 -1 z" stroke-linecap="round"/>
</g>
		<g transform="matrix(1.0667 0 0 1.0667 -83.1977 -14.9309)">
<path style="stroke: none; stroke-width: 1; stroke-dasharray: none; stroke-linecap: butt; stroke-dashoffset: 0; stroke-linejoin: miter; stroke-miterlimit: 4; is-custom-font: none; font-file-url: none; fill: rgb(5,3,3); fill-rule: nonzero; opacity: 1;" transform=" translate(-31, -74)" d="m 0 0 l 62 1 l 14 3 l 11 7 l 8 9 l 3 6 l 1 5 v 8 l -4 13 l -7 9 l -10 8 l -13 6 l 6 7 l 5 7 l 1 5 v 13 l -1 12 v 11 l 4 -8 l 4 -9 h 10 l -1 4 l 5 1 l -1 7 l -5 12 l -7 8 l -7 3 h -13 l -6 -3 l -7 -6 l -5 -8 v -43 l -1 -3 l -7 -2 l -16 -1 l -4 17 l -7 28 l -1 6 h 8 v 4 l 5 1 l -2 9 h -54 v -4 h -5 l 1 -9 l 6 -2 l 9 -2 l 4 -10 l 11 -41 l 15 -57 l 2 -6 l -9 -1 v -3 l -4 -1 l 1 -10 z m 2 4 l -1 4 l 10 2 l 2 3 l -1 10 l -19 72 l -8 30 l -5 8 l -13 3 v 4 l 48 -1 l 1 -3 l -10 -2 l -2 -2 v -9 l 12 -47 l 1 -2 l 16 1 l 10 3 l 5 4 l 2 5 v 43 l 4 6 l 3 3 l 7 2 l 10 -1 l 7 -4 l 6 -10 l 3 -10 l -5 1 l -5 12 l -3 5 l -5 1 l -3 -3 l -1 -5 l 1 -22 v -17 l -4 -8 l -8 -5 l -11 -3 l 15 -5 l 12 -6 l 12 -11 l 5 -9 l 1 -4 v -13 l -5 -10 l -9 -6 l -8 -3 l -6 -1 z" stroke-linecap="round"/>
</g>
		<g transform="matrix(1.0667 0 0 1.0667 189.3355 -17.5977)">
<path style="stroke: none; stroke-width: 1; stroke-dasharray: none; stroke-linecap: butt; stroke-dashoffset: 0; stroke-linejoin: miter; stroke-miterlimit: 4; is-custom-font: none; font-file-url: none; fill: rgb(253,169,169); fill-rule: nonzero; opacity: 1;" transform=" translate(-29.5, -67.5)" d="m 0 0 h 94 l -8 26 l -2 8 h -4 v -21 l -2 -6 l -7 -2 h -32 l -5 3 l -4 8 l -12 45 l -1 5 l 15 -1 l 8 -3 l 7 -8 l 6 -14 h 4 l -1 7 l -8 30 l -4 18 h -4 v -17 l -2 -6 l -9 -2 h -13 l -6 21 l -8 31 l 1 7 l 6 2 h 25 l 9 -1 l 2 5 h -80 v -3 l 13 -3 l 5 -8 l 15 -56 l 13 -49 v -9 l -3 -2 l -8 -1 z" stroke-linecap="round"/>
</g>
		<g transform="matrix(1.0667 0 0 1.0667 68.2687 -17.0644)">
<path style="stroke: none; stroke-width: 1; stroke-dasharray: none; stroke-linecap: butt; stroke-dashoffset: 0; stroke-linejoin: miter; stroke-miterlimit: 4; is-custom-font: none; font-file-url: none; fill: rgb(253,169,169); fill-rule: nonzero; opacity: 1;" transform=" translate(10, -69)" d="m 0 0 h 20 l 10 3 l 9 6 l 5 -1 l 5 -7 l 4 1 l -6 18 l -6 23 h -4 v -13 l -2 -11 l -6 -8 l -8 -5 l -12 -2 l -11 2 l -10 5 l -10 8 l -11 14 l -8 14 l -6 14 l -5 18 l -1 6 v 23 l 4 13 l 7 8 l 6 3 l 5 1 h 9 l 11 -3 l 12 -6 l 6 -5 l 9 -13 l 8 -17 h 4 l -1 7 l -10 41 l -4 -1 v -9 l -1 -3 l -6 2 l -10 6 l -9 4 l -10 2 h -11 l -14 -3 l -10 -5 l -5 -4 l -6 -9 l -4 -13 v -22 l 4 -17 l 6 -15 l 8 -13 l 8 -10 l 10 -10 l 10 -7 l 14 -7 z" stroke-linecap="round"/>
</g>
		<g transform="matrix(1.0667 0 0 1.0667 328.5342 -52.2656)">
<path style="stroke: none; stroke-width: 1; stroke-dasharray: none; stroke-linecap: butt; stroke-dashoffset: 0; stroke-linejoin: miter; stroke-miterlimit: 4; is-custom-font: none; font-file-url: none; fill: rgb(4,3,3); fill-rule: nonzero; opacity: 1;" transform=" translate(-4, -31)" d="m 0 0 h 15 l 8 3 l 5 5 l 3 7 v 14 l -3 10 l -6 10 l -11 8 l -14 4 l -8 1 h -12 l 1 -8 l 11 -40 l 4 -9 l 4 -4 z m 10 7 l -8 2 l -4 6 l -8 28 l -3 11 v 4 h 8 l 13 -3 l 9 -6 l 6 -7 l 4 -10 l 1 -4 v -12 l -2 -5 l -5 -3 z" stroke-linecap="round"/>
</g>
		<g transform="matrix(1.0667 0 0 1.0667 -68.2657 -52.2656)">
<path style="stroke: none; stroke-width: 1; stroke-dasharray: none; stroke-linecap: butt; stroke-dashoffset: 0; stroke-linejoin: miter; stroke-miterlimit: 4; is-custom-font: none; font-file-url: none; fill: rgb(4,3,3); fill-rule: nonzero; opacity: 1;" transform=" translate(-4, -31)" d="m 0 0 h 15 l 10 4 l 4 5 l 2 6 v 13 l -4 13 l -4 6 l -7 7 l -8 4 l -11 3 l -8 1 h -12 l 1 -8 l 12 -44 l 5 -8 z m 10 7 l -8 2 l -4 5 l -10 36 l -2 8 h 9 l 12 -3 l 8 -4 l 8 -9 l 4 -10 l 1 -7 v -8 l -3 -7 l -4 -2 z" stroke-linecap="round"/>
</g>
		<g transform="matrix(1.0667 0 0 1.0667 398.4006 93.3339)">
<path style="stroke: none; stroke-width: 1; stroke-dasharray: none; stroke-linecap: butt; stroke-dashoffset: 0; stroke-linejoin: miter; stroke-miterlimit: 4; is-custom-font: none; font-file-url: none; fill: rgb(6,4,4); fill-rule: nonzero; opacity: 1;" transform=" translate(-7.5, -16.5)" d="m 0 0 l 9 1 l 8 6 l 6 8 l 1 9 l -3 5 l -5 4 h -7 l -8 -4 l -7 -8 l -3 -7 l 1 -7 l 5 -6 z m 0 4 l -4 3 l -1 5 l 4 8 l 7 7 l 4 2 l 7 -1 l 3 -4 l -1 -7 l -9 -10 l -5 -3 z" stroke-linecap="round"/>
</g>
		<g transform="matrix(1.0667 0 0 1.0667 422.9339 58.1338)">
<path style="stroke: none; stroke-width: 1; stroke-dasharray: none; stroke-linecap: butt; stroke-dashoffset: 0; stroke-linejoin: miter; stroke-miterlimit: 4; is-custom-font: none; font-file-url: none; fill: rgb(2,1,1); fill-rule: nonzero; opacity: 1;" transform=" translate(-7.5, -14.5)" d="m 0 0 l 9 1 l 10 5 l 6 7 v 8 l -4 6 l -4 2 h -9 l -10 -4 l -6 -5 l -2 -4 v -8 l 3 -5 z m -3 5 l -3 3 v 7 l 5 5 l 8 4 l 8 1 l 5 -3 l 1 -1 v -7 l -7 -6 l -7 -3 z" stroke-linecap="round"/>
</g>
		<g transform="matrix(1.0667 0 0 1.0667 431.4673 17.0671)">
<path style="stroke: none; stroke-width: 1; stroke-dasharray: none; stroke-linecap: butt; stroke-dashoffset: 0; stroke-linejoin: miter; stroke-miterlimit: 4; is-custom-font: none; font-file-url: none; fill: rgb(7,5,5); fill-rule: nonzero; opacity: 1;" transform=" translate(-7.5, -13)" d="m 0 0 h 15 l 8 4 l 3 6 l -1 8 l -5 5 l -4 2 l -10 1 l -9 -2 l -6 -4 l -2 -5 l 1 -8 l 5 -5 z m 3 4 l -8 3 l -2 3 l 1 7 l 4 3 l 4 1 h 11 l 7 -3 l 2 -3 l -1 -7 l -4 -3 l -4 -1 z" stroke-linecap="round"/>
</g>
		<g transform="matrix(1.0667 0 0 1.0667 364.2672 117.8673)">
<path style="stroke: none; stroke-width: 1; stroke-dasharray: none; stroke-linecap: butt; stroke-dashoffset: 0; stroke-linejoin: miter; stroke-miterlimit: 4; is-custom-font: none; font-file-url: none; fill: rgb(7,5,5); fill-rule: nonzero; opacity: 1;" transform=" translate(-7.5, -19.5)" d="m 0 0 h 8 l 5 5 l 1 2 v 7 l -7 18 l 12 -5 h 3 l 1 4 l -21 8 l -2 -1 l 1 -5 l 7 -16 l 1 -7 l -3 -5 h -6 l -3 4 l -2 5 h -3 v -6 l 4 -6 z" stroke-linecap="round"/>
</g>
		<g transform="matrix(1.0667 0 0 1.0667 245.3339 87.4672)">
<path style="stroke: none; stroke-width: 1; stroke-dasharray: none; stroke-linecap: butt; stroke-dashoffset: 0; stroke-linejoin: miter; stroke-miterlimit: 4; is-custom-font: none; font-file-url: none; fill: rgb(7,4,4); fill-rule: nonzero; opacity: 1;" transform=" translate(3, -16)" d="m 0 0 h 7 l 6 5 l 2 4 v 5 h -4 l -3 -7 l -2 -2 h -5 l -1 1 v 7 l 3 10 l -3 6 l -6 3 l -6 -1 l -7 -6 l -2 -5 l 1 -5 h 3 l 3 8 l 3 3 h 6 l 2 -2 l -1 -6 l -2 -5 v -8 l 4 -4 z" stroke-linecap="round"/>
</g>
		<g transform="matrix(1.0667 0 0 1.0667 284.8006 109.334)">
<path style="stroke: none; stroke-width: 1; stroke-dasharray: none; stroke-linecap: butt; stroke-dashoffset: 0; stroke-linejoin: miter; stroke-miterlimit: 4; is-custom-font: none; font-file-url: none; fill: rgb(9,6,6); fill-rule: nonzero; opacity: 1;" transform=" translate(-11, -19.5)" d="m 0 0 l 6 2 l 19 9 l 1 2 l -1 2 l -5 -1 l -7 -3 l -3 9 l -10 19 l -4 -1 l 1 -5 l 11 -22 l 1 -3 l -6 -2 l -4 -2 z" stroke-linecap="round"/>
</g>
		<g transform="matrix(1.0667 0 0 1.0667 225.0669 28.8004)">
<path style="stroke: none; stroke-width: 1; stroke-dasharray: none; stroke-linecap: butt; stroke-dashoffset: 0; stroke-linejoin: miter; stroke-miterlimit: 4; is-custom-font: none; font-file-url: none; fill: rgb(253,169,169); fill-rule: nonzero; opacity: 1;" transform=" translate(5, -13)" d="m 0 0 h 4 l -2 10 l -4 13 l -9 3 l -3 -1 l 5 -6 l 7 -14 z" stroke-linecap="round"/>
</g>
		<g transform="matrix(1.0667 0 0 1.0667 216.5335 50.6668)">
<path style="stroke: none; stroke-width: 1; stroke-dasharray: none; stroke-linecap: butt; stroke-dashoffset: 0; stroke-linejoin: miter; stroke-miterlimit: 4; is-custom-font: none; font-file-url: none; fill: rgb(253,169,169); fill-rule: nonzero; opacity: 1;" transform=" translate(2, -3.5)" d="m 0 0 h 3 l 2 7 h -13 l -1 -3 z" stroke-linecap="round"/>
</g>
		<g transform="matrix(1.0667 0 0 1.0667 304.0002 137.6002)">
<path style="stroke: none; stroke-width: 1; stroke-dasharray: none; stroke-linecap: butt; stroke-dashoffset: 0; stroke-linejoin: miter; stroke-miterlimit: 4; is-custom-font: none; font-file-url: none; fill: rgb(0,0,0); fill-rule: nonzero; opacity: 1;" transform=" translate(-2, -3)" d="m 0 0 l 5 1 l -1 4 l -3 1 l -2 -1 z" stroke-linecap="round"/>
</g>
</g>
</g>
</svg>